<svg xmlns="http://www.w3.org/2000/svg" viewBox="0 0 64 64">
  <rect width="64" height="64" rx="14" fill="#9a3412"/>
  <path fill="#fff7ed" d="M35.5 8c2.1 8.7-1.2 13.2-4.8 16.8-3.4 3.4-6.9 6.9-5.4 13.2 1 4.2 4.6 7 9 7 5.2 0 9.3-3.9 9.3-9.2 0-4.2-2.1-7.7-6.7-11.3 9.6 2.7 16.1 10.4 16.1 20 0 10.8-8.7 19.5-20.8 19.5C19.6 64 11 55.6 11 44.5c0-7.7 4-13.3 9.1-18.1C25.9 21 32.5 16.2 35.5 8Z"/>
  <path fill="#9a3412" d="M30.5 31c1.1 4.6-.7 7-2.6 8.9-1.8 1.8-3.6 3.6-2.8 6.9.5 2.2 2.4 3.7 4.8 3.7 2.8 0 5-2.1 5-4.9 0-2.2-1.1-4.1-3.6-6 5.1 1.4 8.6 5.5 8.6 10.6 0 5.8-4.7 10.4-11.1 10.4-6.7 0-11.3-4.5-11.3-10.4 0-4.1 2.1-7.1 4.9-9.7 3-2.9 6.6-5.4 8.1-9.5Z"/>
</svg>
